<svg width="67" height="67" viewBox="0 0 67 67" fill="none" xmlns="http://www.w3.org/2000/svg">
<path d="M67 24.3636V42.6364H63.9545V48.7273H60.9091V54.8182H57.8636V57.8636H54.8182V60.9091H51.7727V63.9545H45.6818V67H42.6364V51.7727H39.5909V48.7273H42.6364V45.6818H48.7273V42.6364H51.7727V39.5909H54.8182V24.3636H51.7727V15.2273H45.6818V18.2727H42.6364V21.3182H39.5909V18.2727H27.4091V21.3182H24.3636V18.2727H21.3182V15.2273H15.2273V24.3636H12.1818V39.5909H15.2273V42.6364H18.2727V45.6818H24.3636V51.7727H18.2727V48.7273H15.2273V45.6818H9.13636V48.7273H12.1818V54.8182H15.2273V57.8636H24.3636V67H21.3182V63.9545H15.2273V60.9091H12.1818V57.8636H9.13636V54.8182H6.09091V48.7273H3.04545V42.6364H0V24.3636H3.04545V18.2727H6.09091V12.1818H9.13636V9.13636H12.1818V6.09091H18.2727V3.04545H24.3636V0H42.6364V3.04545H48.7273V6.09091H54.8182V9.13636H57.8636V12.1818H60.9091V18.2727H63.9545V24.3636H67Z" fill="white"/>
</svg>
