<svg width="46" height="46" viewBox="0 0 46 46" fill="none" xmlns="http://www.w3.org/2000/svg">
<path d="M29.2725 0V2.09082H33.4541V4.18164H37.6357V6.27246H39.7266V8.36328H41.8174V12.5449H43.9082V16.7266H45.999V29.2725H43.9082V33.4541H41.8174V37.6357H39.7266V39.7266H37.6357V41.8174H33.4541V43.9082H29.2725V45.999H16.7266V43.9082H12.5449V41.8174H8.36328V39.7266H6.27246V37.6357H4.18164V33.4541H2.09082V29.2725H0V16.7266H2.09082V12.5449H4.18164V8.36328H6.27246V6.27246H8.36328V4.18164H12.5449V2.09082H16.7266V0H29.2725Z" fill="white"/>
<path d="M13.625 21.125C13.625 20.0895 12.7855 19.25 11.75 19.25C10.7145 19.25 9.875 20.0895 9.875 21.125V26.75C9.875 27.7855 10.7145 28.625 11.75 28.625C12.7855 28.625 13.625 27.7855 13.625 26.75V21.125Z" fill="#8BC34A"/>
<path d="M36.125 21.125C36.125 20.0895 35.2855 19.25 34.25 19.25C33.2145 19.25 32.375 20.0895 32.375 21.125V26.75C32.375 27.7855 33.2145 28.625 34.25 28.625C35.2855 28.625 36.125 27.7855 36.125 26.75V21.125Z" fill="#8BC34A"/>
<path d="M15.5 19.2501H30.5V30.5001H15.5V19.2501ZM17.375 30.5001H21.125V34.2501C21.125 34.7474 20.9275 35.2243 20.5758 35.5759C20.2242 35.9276 19.7473 36.1251 19.25 36.1251C18.7527 36.1251 18.2758 35.9276 17.9242 35.5759C17.5725 35.2243 17.375 34.7474 17.375 34.2501V30.5001ZM24.875 30.5001H28.625V34.2501C28.625 34.7474 28.4275 35.2243 28.0758 35.5759C27.7242 35.9276 27.2473 36.1251 26.75 36.1251C26.2527 36.1251 25.7758 35.9276 25.4242 35.5759C25.0725 35.2243 24.875 34.7474 24.875 34.2501V30.5001ZM28.1984 11.976L30.1859 9.98854C30.3567 9.81173 30.4512 9.57491 30.4491 9.3291C30.4469 9.08329 30.3483 8.84816 30.1745 8.67434C30.0007 8.50052 29.7656 8.40192 29.5198 8.39978C29.2739 8.39765 29.0371 8.49214 28.8603 8.66292L26.6797 10.8435C25.5573 10.2084 24.2896 9.87465 23 9.87465C21.7104 9.87465 20.4427 10.2084 19.3203 10.8435L17.1406 8.66292C17.0541 8.57338 16.9507 8.50196 16.8363 8.45282C16.7219 8.40369 16.5989 8.37783 16.4744 8.37674C16.35 8.37566 16.2265 8.39938 16.1113 8.44652C15.9961 8.49366 15.8914 8.56327 15.8034 8.6513C15.7154 8.73932 15.6457 8.84399 15.5986 8.95921C15.5515 9.07443 15.5277 9.19787 15.5288 9.32236C15.5299 9.44684 15.5558 9.56985 15.6049 9.68423C15.654 9.79861 15.7255 9.90206 15.815 9.98854L17.8025 11.976C17.0741 12.6739 16.4946 13.5121 16.0989 14.44C15.7032 15.3679 15.4995 16.3663 15.5 17.3751H30.5C30.5007 16.3664 30.2971 15.368 29.9015 14.4401C29.506 13.5122 28.9266 12.674 28.1984 11.976ZM21.125 15.5001H19.25V13.6251H21.125V15.5001ZM26.75 15.5001H24.875V13.6251H26.75V15.5001Z" fill="#8BC34A"/>
</svg>
