<svg width="46" height="46" viewBox="0 0 46 46" fill="none" xmlns="http://www.w3.org/2000/svg">
<path d="M29.2725 0V2.09082H33.4541V4.18164H37.6357V6.27246H39.7266V8.36328H41.8174V12.5449H43.9082V16.7266H45.999V29.2725H43.9082V33.4541H41.8174V37.6357H39.7266V39.7266H37.6357V41.8174H33.4541V43.9082H29.2725V45.999H16.7266V43.9082H12.5449V41.8174H8.36328V39.7266H6.27246V37.6357H4.18164V33.4541H2.09082V29.2725H0V16.7266H2.09082V12.5449H4.18164V8.36328H6.27246V6.27246H8.36328V4.18164H12.5449V2.09082H16.7266V0H29.2725Z" fill="white"/>
<path d="M25.8471 35.9197H26.1623L31.3067 33.3472L31.3923 33.2262V12.692L31.3067 12.5703L26.1623 10H25.8433L25.8471 35.9197Z" fill="#5294CF"/>
<path d="M19.1524 35.9197H18.833L13.6928 33.3472L13.5885 33.1678L13.5356 12.7966L13.6928 12.5705L18.8329 10H19.1564L19.1524 35.9197Z" fill="#1F5B98"/>
<path d="M18.8418 10H26.1574V35.9197H18.8418V10Z" fill="#2D72B8"/>
<path d="M33.9997 22.3776L33.8258 22.3391L31.3438 22.1077L31.3069 22.1259L26.1578 21.9201H18.8419L13.6928 22.1259V18.1994L13.6874 18.2023L13.6928 18.1908L18.8419 16.9977H26.1578L31.3069 18.1908L33.1997 19.197V18.5501L33.9997 18.4627L33.9169 18.3012L31.384 16.4901L31.3069 16.5151L26.1578 14.9195H18.8419L13.6928 16.515V12.5706L11 15.725V18.4801L11.0208 18.465L11.8 18.55V19.2102L11 19.6382V22.3797L11.0208 22.3775L11.8 22.389V23.5396L11.1278 23.5496L11 23.5375V26.2799L11.7999 26.71V27.3778L11.0335 27.4625L11 27.4373V30.1919L13.6928 33.3471V29.4029L18.8419 30.9985H26.1578L31.3221 29.3982L31.3907 29.4283L33.8902 27.6438L33.9997 27.4661L33.1997 27.3778V26.7234L33.095 26.6815L31.384 27.6038L31.3221 27.7331L26.1578 28.9194V28.9208H18.8419V28.9194L13.6928 27.7281V23.7873L18.8419 23.9925V23.9975H26.1578L31.3069 23.7873L31.4241 23.8412L33.83 23.6341L33.9997 23.5511L33.1997 23.5396V22.389L33.9997 22.3776Z" fill="#1A476F"/>
<path d="M31.3071 29.4027V33.3469L34 30.1918V27.4551L31.3227 29.3981L31.3071 29.4027ZM31.3071 27.7366L31.3227 27.733L34 26.293V23.5394L31.3071 23.787V27.7366ZM31.3227 18.194L31.3071 18.1906V22.1256L34 22.3773V19.625L31.3227 18.194ZM31.3227 16.5301L34 18.4622V15.7255L31.3071 12.5701V16.5145L31.3227 16.52V16.5301Z" fill="#2D72B8"/>
</svg>
