<svg width="46" height="46" viewBox="0 0 46 46" fill="none" xmlns="http://www.w3.org/2000/svg">
<path d="M29.2725 0V2.09082H33.4541V4.18164H37.6357V6.27246H39.7266V8.36328H41.8174V12.5449H43.9082V16.7266H45.999V29.2725H43.9082V33.4541H41.8174V37.6357H39.7266V39.7266H37.6357V41.8174H33.4541V43.9082H29.2725V45.999H16.7266V43.9082H12.5449V41.8174H8.36328V39.7266H6.27246V37.6357H4.18164V33.4541H2.09082V29.2725H0V16.7266H2.09082V12.5449H4.18164V8.36328H6.27246V6.27246H8.36328V4.18164H12.5449V2.09082H16.7266V0H29.2725Z" fill="white"/>
<path d="M23.5 30.8467C15.4888 30.8467 9 27.56 9 23.5C9 19.44 15.4888 16.1533 23.5 16.1533C31.5113 16.1533 38 19.44 38 23.5C38 27.56 31.5113 30.8467 23.5 30.8467ZM17.2288 21.2404C17.8813 21.2404 18.3283 21.3612 18.5458 21.615C18.7633 21.8567 18.8117 22.2917 18.7029 22.8596C18.5821 23.5 18.3525 23.9108 18.0021 24.1767C17.6638 24.4425 17.1442 24.5754 16.4433 24.5754H15.3921L16.0325 21.2404H17.2288ZM12.9996 27.9467H14.7396L15.1504 25.8321H16.6367C17.2892 25.8321 17.8208 25.7596 18.2438 25.6267C18.6667 25.4817 19.0533 25.2521 19.4037 24.9258C19.6937 24.66 19.9233 24.37 20.1046 24.0437C20.2858 23.7296 20.4188 23.3671 20.4792 22.9804C20.6725 22.0379 20.5396 21.3008 20.0804 20.7812C19.6092 20.2496 18.8842 19.9958 17.8813 19.9958H14.5463L12.9996 27.9467ZM21.76 17.8812L20.2133 25.8321H21.9292L22.8233 21.2767H24.2008C24.6358 21.2767 24.9258 21.3492 25.0588 21.4942C25.1917 21.6392 25.2158 21.905 25.1433 22.2917L24.4546 25.8321H26.2067L26.9196 22.1225C27.0767 21.3733 26.9558 20.8296 26.5933 20.4792C26.2308 20.1529 25.5663 19.9958 24.5996 19.9958H23.065L23.5 17.8812H21.76ZM30.75 21.2404C31.4146 21.2404 31.8496 21.3612 32.0671 21.615C32.2846 21.8567 32.3329 22.2917 32.2242 22.8596C32.1033 23.5 31.8738 23.9108 31.5354 24.1767C31.185 24.4425 30.6654 24.5754 29.9646 24.5754H28.9375L29.5417 21.2404H30.75ZM26.5208 27.9467H28.2608L28.6717 25.8321H30.1458C30.8104 25.8321 31.3542 25.7596 31.7771 25.6267C32.2 25.4817 32.5625 25.2521 32.925 24.9258C33.215 24.66 33.4567 24.37 33.6258 24.0437C33.8071 23.7296 33.94 23.3671 34.0125 22.9804C34.1938 22.0379 34.0608 21.3008 33.6017 20.7812C33.1667 20.2496 32.4054 19.9958 31.4025 19.9958H28.0796L26.5208 27.9467Z" fill="#1E88E5"/>
</svg>
