<svg width="46" height="46" viewBox="0 0 46 46" fill="none" xmlns="http://www.w3.org/2000/svg">
<path d="M29.2725 0V2.09082H33.4541V4.18164H37.6357V6.27246H39.7266V8.36328H41.8174V12.5449H43.9082V16.7266H45.999V29.2725H43.9082V33.4541H41.8174V37.6357H39.7266V39.7266H37.6357V41.8174H33.4541V43.9082H29.2725V45.999H16.7266V43.9082H12.5449V41.8174H8.36328V39.7266H6.27246V37.6357H4.18164V33.4541H2.09082V29.2725H0V16.7266H2.09082V12.5449H4.18164V8.36328H6.27246V6.27246H8.36328V4.18164H12.5449V2.09082H16.7266V0H29.2725Z" fill="white"/>
<g clip-path="url(#clip0_122_599)">
<path d="M17.7867 21.0728C17.7867 21.3598 17.8185 21.5925 17.8741 21.7632C17.9447 21.9552 18.0297 22.1418 18.1284 22.3216C18.1681 22.3837 18.184 22.4457 18.184 22.5001C18.184 22.5776 18.1364 22.6552 18.033 22.7328L17.5324 23.0585C17.4609 23.1051 17.3894 23.1283 17.3257 23.1283C17.2463 23.1283 17.1668 23.0895 17.0873 23.0197C16.9801 22.9075 16.8843 22.7854 16.8013 22.6552C16.7218 22.5234 16.6423 22.3759 16.5549 22.1976C15.935 22.9111 15.1561 23.2679 14.2185 23.268C13.551 23.268 13.0185 23.0817 12.629 22.7095C12.2397 22.3371 12.041 21.8407 12.041 21.2202C12.041 20.5609 12.2794 20.0257 12.7642 19.6224C13.2489 19.219 13.8927 19.0174 14.7112 19.0174C14.9814 19.0174 15.2595 19.0406 15.5535 19.0794C15.8476 19.1182 16.1496 19.1802 16.4675 19.25V18.6838C16.4675 18.0943 16.3403 17.6832 16.0939 17.4428C15.8397 17.2023 15.4105 17.0859 14.7986 17.0859C14.5204 17.0859 14.2344 17.117 13.9403 17.1868C13.6462 17.2566 13.3602 17.3419 13.082 17.4505C12.9549 17.5048 12.8595 17.5358 12.8039 17.5514C12.7482 17.5669 12.7085 17.5746 12.6767 17.5746C12.5655 17.5746 12.5099 17.497 12.5099 17.3342V16.954C12.5099 16.83 12.5258 16.7369 12.5655 16.6826C12.6052 16.6283 12.6767 16.574 12.788 16.5198C13.0661 16.3801 13.3999 16.2637 13.7893 16.1707C14.1788 16.0699 14.592 16.0234 15.0291 16.0234C15.9749 16.0234 16.6663 16.2327 17.1113 16.6516C17.5484 17.0704 17.7709 17.7065 17.7709 18.5597V21.0728H17.7867ZM14.5602 22.2518C14.8225 22.2518 15.0927 22.2053 15.3787 22.1122C15.6648 22.0191 15.9192 21.8485 16.1337 21.6158C16.2609 21.4685 16.3562 21.3056 16.4039 21.1194C16.4516 20.9333 16.4834 20.7082 16.4834 20.4445V20.1188C16.2423 20.0616 15.9982 20.0175 15.7522 19.9869C15.5044 19.9562 15.255 19.9407 15.0052 19.9403C14.4727 19.9403 14.0834 20.0412 13.8211 20.2506C13.5589 20.4601 13.4317 20.7548 13.4317 21.1426C13.4317 21.5072 13.527 21.7786 13.7257 21.9649C13.9165 22.1588 14.1946 22.2518 14.5602 22.2518ZM20.9416 23.0895C20.7986 23.0895 20.7032 23.0663 20.6397 23.0119C20.5761 22.9654 20.5204 22.8568 20.4728 22.7095L18.6053 16.7137C18.5575 16.5585 18.5337 16.4576 18.5337 16.4034C18.5337 16.2793 18.5972 16.2094 18.7245 16.2094H19.5032C19.6542 16.2094 19.7576 16.2327 19.8132 16.287C19.8767 16.3336 19.9245 16.4422 19.9721 16.5895L21.3072 21.7244L22.5469 16.5895C22.5867 16.4344 22.6344 16.3336 22.6979 16.287C22.7615 16.2405 22.8728 16.2095 23.0159 16.2095H23.6516C23.8025 16.2095 23.9059 16.2327 23.9694 16.287C24.033 16.3336 24.0886 16.4422 24.1204 16.5895L25.3761 21.7864L26.7509 16.5895C26.7985 16.4344 26.8542 16.3336 26.9098 16.287C26.9733 16.2405 27.0766 16.2095 27.2197 16.2095H27.9587C28.086 16.2095 28.1575 16.2715 28.1575 16.4034C28.1575 16.4422 28.1495 16.481 28.1415 16.5275C28.1336 16.5739 28.1177 16.6361 28.086 16.7214L26.1706 22.7172C26.123 22.8724 26.0674 22.9732 26.0038 23.0197C25.9402 23.0663 25.8369 23.0973 25.7019 23.0973H25.0185C24.8674 23.0973 24.7641 23.0741 24.7005 23.0197C24.6369 22.9654 24.5813 22.8646 24.5495 22.7095L23.3176 17.7065L22.0938 22.7016C22.0542 22.8568 22.0065 22.9577 21.9429 23.0119C21.8793 23.0663 21.768 23.0895 21.6251 23.0895H20.9416ZM31.1535 23.299C30.7403 23.299 30.327 23.2524 29.9297 23.1593C29.5323 23.0663 29.2225 22.9654 29.0159 22.8491C28.8886 22.7792 28.8012 22.7017 28.7695 22.6319C28.7386 22.5634 28.7223 22.4895 28.7218 22.4147V22.0191C28.7218 21.8562 28.7853 21.7786 28.9046 21.7786C28.9532 21.7788 29.0016 21.7867 29.0476 21.802C29.0953 21.8175 29.1668 21.8485 29.2463 21.8795C29.527 22.0001 29.82 22.0911 30.1204 22.151C30.4317 22.2126 30.7485 22.2438 31.0662 22.244C31.5668 22.244 31.9562 22.1588 32.2264 21.9881C32.4966 21.8174 32.6397 21.5693 32.6397 21.2512C32.6397 21.0341 32.5681 20.8557 32.4251 20.7082C32.282 20.5608 32.0118 20.4291 31.6225 20.3049L30.4701 19.9559C29.89 19.7775 29.4609 19.5138 29.1986 19.1647C28.9364 18.8234 28.8013 18.4434 28.8013 18.04C28.8013 17.7143 28.8728 17.4272 29.0159 17.179C29.1588 16.9308 29.3496 16.7137 29.588 16.543C29.8264 16.3646 30.0966 16.2327 30.4145 16.1397C30.7323 16.0466 31.0661 16.0078 31.4158 16.0078C31.5906 16.0078 31.7734 16.0156 31.9483 16.0388C32.1311 16.0621 32.298 16.0931 32.4648 16.1241C32.6237 16.1629 32.7748 16.2017 32.9178 16.2483C33.0608 16.2948 33.1721 16.3413 33.2516 16.3878C33.3629 16.45 33.4423 16.512 33.49 16.5818C33.5377 16.6439 33.5615 16.7292 33.5615 16.8377V17.2023C33.5615 17.3652 33.498 17.4505 33.3787 17.4505C33.3151 17.4505 33.2118 17.4194 33.0768 17.3574C32.6237 17.1557 32.1151 17.0549 31.551 17.0549C31.098 17.0549 30.7403 17.1247 30.4939 17.2721C30.2476 17.4194 30.1204 17.6444 30.1204 17.9624C30.1204 18.1796 30.1999 18.3658 30.3588 18.5132C30.5177 18.6606 30.8118 18.8079 31.233 18.9398L32.3615 19.2888C32.9337 19.4673 33.3469 19.7154 33.5933 20.0334C33.8397 20.3514 33.9589 20.716 33.9589 21.1194C33.9589 21.4529 33.8873 21.7554 33.7522 22.0191C33.6092 22.2828 33.4185 22.5155 33.1721 22.7017C32.9257 22.8956 32.6317 23.0353 32.29 23.1361C31.9323 23.2447 31.5588 23.299 31.1535 23.299Z" fill="#252F3E"/>
<path d="M32.6557 27.0685C30.0412 28.9534 26.2424 29.954 22.9763 29.954C18.3988 29.954 14.2743 28.3018 11.1591 25.5559C10.9127 25.3388 11.1352 25.0441 11.4292 25.2146C14.7988 27.1228 18.9551 28.2785 23.2544 28.2785C26.1551 28.2785 29.3418 27.6891 32.2743 26.479C32.7114 26.285 33.0849 26.7583 32.6557 27.0685ZM33.7445 25.8584C33.4108 25.4396 31.5352 25.6568 30.6849 25.7576C30.4305 25.7887 30.3908 25.5715 30.6213 25.4086C32.1153 24.3847 34.571 24.6795 34.857 25.0207C35.1432 25.3698 34.7775 27.7666 33.3789 28.9146C33.1644 29.093 32.9578 28.9999 33.0531 28.7672C33.3709 27.9993 34.0783 26.2696 33.7445 25.8584Z" fill="#FF9900"/>
</g>
<defs>
<clipPath id="clip0_122_599">
<rect width="24" height="14" fill="white" transform="translate(11 16)"/>
</clipPath>
</defs>
</svg>
