<svg width="46" height="46" viewBox="0 0 46 46" fill="none" xmlns="http://www.w3.org/2000/svg">
<path d="M29.2725 0V2.09082H33.4541V4.18164H37.6357V6.27246H39.7266V8.36328H41.8174V12.5449H43.9082V16.7266H45.999V29.2725H43.9082V33.4541H41.8174V37.6357H39.7266V39.7266H37.6357V41.8174H33.4541V43.9082H29.2725V45.999H16.7266V43.9082H12.5449V41.8174H8.36328V39.7266H6.27246V37.6357H4.18164V33.4541H2.09082V29.2725H0V16.7266H2.09082V12.5449H4.18164V8.36328H6.27246V6.27246H8.36328V4.18164H12.5449V2.09082H16.7266V0H29.2725Z" fill="white"/>
<g clip-path="url(#clip0_122_617)">
<path d="M22.9852 39.9142L13.2181 37.1902L11.0415 12.665H34.9581L32.7792 37.1865L22.9852 39.9142Z" fill="#264DE4"/>
<path d="M30.9141 35.6249L32.776 14.6702H23V37.8291L30.9141 35.6249Z" fill="#2965F1"/>
<path d="M16.0314 23.7663L16.2997 26.7742H23V23.7663H16.0314ZM15.4922 17.6782L15.7643 20.6861H23V17.6782H15.4922ZM23 31.5782L22.9868 31.5817L19.6523 30.6771L19.4392 28.2782H16.4335L16.853 33.0011L22.9862 34.7115L23 34.7077V31.5782Z" fill="#EBEBEB"/>
<path d="M16.6704 6H20.2967V7.5235H18.1869V9.047H20.2968V10.5704H16.6704V6ZM21.022 6H24.6483V7.32478H22.5385V7.58971H24.6483V10.6367H21.0221V9.24554H23.1319V8.9806H21.0219L21.022 6ZM25.3737 6H29V7.32478H26.8902V7.58971H29V10.6367H25.3737V9.24554H27.4835V8.9806H25.3738L25.3737 6Z" fill="black"/>
<path d="M29.9496 23.7663L30.49 17.6782H22.9898V20.6861H27.2088L26.9363 23.7663H22.9898V26.7742H26.6767L26.3291 30.6753L22.9897 31.5807V34.7101L29.1278 33.0011L29.1728 32.4929L29.8765 24.574L29.9496 23.7663Z" fill="white"/>
</g>
<defs>
<clipPath id="clip0_122_617">
<rect width="24" height="34" fill="white" transform="translate(11 6)"/>
</clipPath>
</defs>
</svg>
