<svg width="46" height="46" viewBox="0 0 46 46" fill="none" xmlns="http://www.w3.org/2000/svg">
<path d="M29.2725 0V2.09082H33.4541V4.18164H37.6357V6.27246H39.7266V8.36328H41.8174V12.5449H43.9082V16.7266H45.999V29.2725H43.9082V33.4541H41.8174V37.6357H39.7266V39.7266H37.6357V41.8174H33.4541V43.9082H29.2725V45.999H16.7266V43.9082H12.5449V41.8174H8.36328V39.7266H6.27246V37.6357H4.18164V33.4541H2.09082V29.2725H0V16.7266H2.09082V12.5449H4.18164V8.36328H6.27246V6.27246H8.36328V4.18164H12.5449V2.09082H16.7266V0H29.2725Z" fill="white"/>
<path d="M19.8799 32.8999C20.7574 33.2524 21.7099 33.4624 22.7149 33.4999C24.0724 33.5449 25.3549 33.2674 26.5099 32.7349C25.1299 32.1949 23.8774 31.3999 22.8124 30.4099C22.1166 31.5209 21.0952 32.3904 19.8874 32.8999H19.8799Z" fill="#FF9100"/>
<path d="M22.8049 30.41C20.3674 28.16 18.8899 24.8975 19.0174 21.32C19.0174 21.2075 19.0249 21.0875 19.0324 20.975C17.9506 20.699 16.8152 20.7119 15.7399 21.0125C15.0874 22.1525 14.6974 23.4575 14.6449 24.86C14.5174 28.475 16.7074 31.6325 19.8799 32.9075C21.0912 32.4035 22.1141 31.5328 22.8049 30.4175V30.41Z" fill="#FFC400"/>
<path d="M22.8048 30.41C23.3895 29.4739 23.7179 28.4006 23.7573 27.2975C23.8623 24.2825 21.8373 21.695 19.0323 20.9675C19.0323 21.08 19.0173 21.2 19.0173 21.3125C18.9546 23.0113 19.2606 24.7036 19.9145 26.2728C20.5683 27.842 21.5544 29.2509 22.8048 30.4025V30.41Z" fill="#FF9100"/>
<path d="M23.4427 12.5C21.8452 13.775 20.5852 15.4625 19.8202 17.405C19.373 18.544 19.1073 19.7461 19.0327 20.9675C20.4233 21.327 21.6496 22.1503 22.5088 23.3013C23.3679 24.4523 23.8085 25.8621 23.7577 27.2975C23.723 28.4013 23.3941 29.4758 22.8052 30.41C23.883 31.4074 25.1368 32.1958 26.5027 32.735C29.2777 31.4525 31.2427 28.7 31.3552 25.4375C31.4302 23.3225 30.6202 21.44 29.4727 19.85C28.2577 18.17 23.4427 12.5075 23.4427 12.5075V12.5Z" fill="#DD2C00"/>
</svg>
