<svg width="46" height="46" viewBox="0 0 46 46" fill="none" xmlns="http://www.w3.org/2000/svg">
<path d="M29.2725 0V2.09082H33.4541V4.18164H37.6357V6.27246H39.7266V8.36328H41.8174V12.5449H43.9082V16.7266H45.999V29.2725H43.9082V33.4541H41.8174V37.6357H39.7266V39.7266H37.6357V41.8174H33.4541V43.9082H29.2725V45.999H16.7266V43.9082H12.5449V41.8174H8.36328V39.7266H6.27246V37.6357H4.18164V33.4541H2.09082V29.2725H0V16.7266H2.09082V12.5449H4.18164V8.36328H6.27246V6.27246H8.36328V4.18164H12.5449V2.09082H16.7266V0H29.2725Z" fill="white"/>
<g clip-path="url(#clip0_122_616)">
<path d="M34.9581 12.665L32.7792 37.1865L22.9852 39.9142L13.2181 37.1902L11.0415 12.665H34.9581Z" fill="#E44D26"/>
<path d="M23 37.8291L30.9141 35.6249L32.776 14.6702H23V37.8291Z" fill="#F16529"/>
<path d="M18.7643 20.6861H23V17.6782H15.4922L15.5638 18.4852L16.2997 26.7742H23V23.7663H19.038L18.7643 20.6861ZM19.4392 28.2782H16.4335L16.853 33.0011L22.9862 34.7115L23 34.7077V31.5782L22.9868 31.5817L19.6523 30.6771L19.4392 28.2782Z" fill="#EBEBEB"/>
<path d="M13.2671 6H14.7887V7.51022H16.1806V6H17.7022V10.5733H16.1807V9.04192H14.7887V10.5733H13.2672L13.2671 6ZM19.703 7.51663H18.3637V6H22.565V7.51663H21.2249V10.5733H19.7033V7.51663H19.703ZM23.2318 6H24.8183L25.7942 7.60695L26.7692 6H28.3564V10.5733H26.8411V8.30654L25.7942 9.9326H25.768L24.7205 8.30654V10.5733H23.2318V6ZM29.1137 6H30.6357V9.0617H32.7754V10.5733H29.1136L29.1137 6Z" fill="black"/>
<path d="M22.9898 26.7742H26.6767L26.3291 30.6753L22.9897 31.5807V34.7101L29.1278 33.0011L29.1728 32.4929L29.8765 24.574L29.9496 23.7663H22.9898V26.7742ZM22.9898 20.6788V20.6861H30.222L30.282 20.0101L30.4185 18.4852L30.49 17.6782H22.9898V20.6788Z" fill="white"/>
</g>
<defs>
<clipPath id="clip0_122_616">
<rect width="24" height="34" fill="white" transform="translate(11 6)"/>
</clipPath>
</defs>
</svg>
