<svg width="46" height="46" viewBox="0 0 46 46" fill="none" xmlns="http://www.w3.org/2000/svg">
<path d="M29.2725 0V2.09082H33.4541V4.18164H37.6357V6.27246H39.7266V8.36328H41.8174V12.5449H43.9082V16.7266H45.999V29.2725H43.9082V33.4541H41.8174V37.6357H39.7266V39.7266H37.6357V41.8174H33.4541V43.9082H29.2725V45.999H16.7266V43.9082H12.5449V41.8174H8.36328V39.7266H6.27246V37.6357H4.18164V33.4541H2.09082V29.2725H0V16.7266H2.09082V12.5449H4.18164V8.36328H6.27246V6.27246H8.36328V4.18164H12.5449V2.09082H16.7266V0H29.2725Z" fill="white"/>
<g clip-path="url(#clip0_122_603)">
<path d="M18.7394 31.7375C18.7394 31.7375 17.5021 32.4473 19.62 32.6875C22.1859 32.9762 23.4971 32.9349 26.3247 32.4069C26.3247 32.4069 27.0682 32.8667 28.1063 33.2651C21.7677 35.945 13.7607 33.1098 18.7394 31.7375ZM17.9649 28.2402C17.9649 28.2402 16.5771 29.2537 18.6966 29.4699C21.4375 29.7489 23.602 29.7717 27.3475 29.0602C27.3475 29.0602 27.8655 29.5783 28.6801 29.8617C21.0163 32.0725 12.4803 30.036 17.9649 28.2402Z" fill="#5382A1"/>
<path d="M24.4946 22.3078C26.0564 24.0817 24.0842 25.678 24.0842 25.678C24.0842 25.678 28.0499 23.6584 26.2287 21.1293C24.5277 18.7709 23.2231 17.5989 30.285 13.5586C30.285 13.5586 19.2002 16.2898 24.4946 22.3078Z" fill="#E76F00"/>
<path d="M32.8778 34.3242C32.8778 34.3242 33.7934 35.0684 31.8693 35.6442C28.2106 36.7377 16.6413 37.0678 13.4274 35.6878C12.2721 35.1921 14.4386 34.504 15.1201 34.3595C15.8308 34.2075 16.237 34.2358 16.237 34.2358C14.9522 33.3429 7.93239 35.9891 12.6714 36.7468C25.5951 38.8144 36.23 35.8159 32.8778 34.3242ZM19.3343 24.6167C19.3343 24.6167 13.4495 25.9957 17.2504 26.4963C18.8552 26.7083 22.0544 26.6604 25.0345 26.414C27.4699 26.2114 29.9154 25.7804 29.9154 25.7804C29.9154 25.7804 29.0566 26.1433 28.4353 26.5618C22.4593 28.1123 10.9148 27.391 14.2383 25.805C17.049 24.4647 19.3343 24.6167 19.3343 24.6167ZM29.8911 30.4379C35.9661 27.3238 33.1572 24.3311 31.1967 24.7343C30.7162 24.8329 30.502 24.9184 30.502 24.9184C30.502 24.9184 30.6804 24.6428 31.021 24.5235C34.8995 23.1783 37.8823 28.4908 29.769 30.5949C29.769 30.595 29.863 30.5121 29.8911 30.4379Z" fill="#5382A1"/>
<path d="M26.2285 7.03427C26.2285 7.03427 29.5929 10.3545 23.0375 15.4598C17.7808 19.5552 21.8388 21.8903 23.0353 24.5582C19.9669 21.8272 17.715 19.4229 19.2258 17.1853C21.4431 13.9005 27.5859 12.3081 26.2285 7.03427Z" fill="#E76F00"/>
<path d="M19.9312 38.8764C25.7624 39.2447 34.7167 38.6721 34.9288 35.9502C34.9288 35.9502 34.5212 36.9821 30.1097 37.8016C25.1327 38.7255 18.9943 38.6177 15.3535 38.0255C15.3536 38.0255 16.0987 38.634 19.9312 38.8764Z" fill="#5382A1"/>
</g>
<defs>
<clipPath id="clip0_122_603">
<rect width="24" height="32" fill="white" transform="translate(11 7)"/>
</clipPath>
</defs>
</svg>
