<svg width="46" height="46" viewBox="0 0 46 46" fill="none" xmlns="http://www.w3.org/2000/svg">
<path d="M29.2725 0V2.09082H33.4541V4.18164H37.6357V6.27246H39.7266V8.36328H41.8174V12.5449H43.9082V16.7266H45.999V29.2725H43.9082V33.4541H41.8174V37.6357H39.7266V39.7266H37.6357V41.8174H33.4541V43.9082H29.2725V45.999H16.7266V43.9082H12.5449V41.8174H8.36328V39.7266H6.27246V37.6357H4.18164V33.4541H2.09082V29.2725H0V16.7266H2.09082V12.5449H4.18164V8.36328H6.27246V6.27246H8.36328V4.18164H12.5449V2.09082H16.7266V0H29.2725Z" fill="white"/>
<g clip-path="url(#clip0_122_602)">
<path d="M29.375 11H16.625C13.5184 11 11 13.5184 11 16.625V29.375C11 32.4816 13.5184 35 16.625 35H29.375C32.4816 35 35 32.4816 35 29.375V16.625C35 13.5184 32.4816 11 29.375 11Z" fill="#F0DB4F"/>
<path d="M17.3106 31.0562L19.1472 29.9447C19.5016 30.5729 19.8239 31.1045 20.597 31.1045C21.3381 31.1045 21.8054 30.8146 21.8054 29.687V22.0184H24.0608V29.7188C24.0608 32.0548 22.6915 33.1181 20.6937 33.1181C18.8895 33.1181 17.8422 32.1837 17.3105 31.056M25.2859 30.8145L27.1222 29.7513C27.6057 30.5407 28.234 31.1207 29.3455 31.1207C30.2801 31.1207 30.876 30.6534 30.876 30.009C30.876 29.2357 30.2638 28.9618 29.2327 28.5109L28.669 28.2691C27.0418 27.5765 25.9624 26.7065 25.9624 24.8699C25.9624 23.1783 27.2512 21.8894 29.2651 21.8894C30.6989 21.8894 31.73 22.3889 32.471 23.6938L30.7149 24.8215C30.3282 24.1288 29.9095 23.855 29.2651 23.855C28.6045 23.855 28.1856 24.2738 28.1856 24.8215C28.1856 25.4981 28.6045 25.7721 29.5711 26.191L30.1349 26.4326C32.052 27.2543 33.1314 28.0919 33.1314 29.9767C33.1314 32.0068 31.5365 33.1183 29.3939 33.1183C27.2996 33.1183 25.9463 32.1195 25.2859 30.8145Z" fill="#323330"/>
</g>
<defs>
<clipPath id="clip0_122_602">
<rect width="24" height="24" fill="white" transform="translate(11 11)"/>
</clipPath>
</defs>
</svg>
