<svg width="46" height="46" viewBox="0 0 46 46" fill="none" xmlns="http://www.w3.org/2000/svg">
<path d="M29.2725 0V2.09082H33.4541V4.18164H37.6357V6.27246H39.7266V8.36328H41.8174V12.5449H43.9082V16.7266H45.999V29.2725H43.9082V33.4541H41.8174V37.6357H39.7266V39.7266H37.6357V41.8174H33.4541V43.9082H29.2725V45.999H16.7266V43.9082H12.5449V41.8174H8.36328V39.7266H6.27246V37.6357H4.18164V33.4541H2.09082V29.2725H0V16.7266H2.09082V12.5449H4.18164V8.36328H6.27246V6.27246H8.36328V4.18164H12.5449V2.09082H16.7266V0H29.2725Z" fill="white"/>
<path d="M12.3467 12.3479V32.6519H32.6529V32.6181L27.6152 27.5433L22.5752 22.4639L27.6152 17.3845L32.6136 12.3479H12.3467Z" fill="url(#paint0_linear_122_615)"/>
<defs>
<linearGradient id="paint0_linear_122_615" x1="12.2025" y1="33.051" x2="32.7627" y2="12.2617" gradientUnits="userSpaceOnUse">
<stop stop-color="#7C4DFF"/>
<stop offset="0.5" stop-color="#D500F9"/>
<stop offset="1" stop-color="#EF5350"/>
</linearGradient>
</defs>
</svg>
