<svg width="46" height="46" viewBox="0 0 46 46" fill="none" xmlns="http://www.w3.org/2000/svg">
<path d="M29.2725 0V2.09082H33.4541V4.18164H37.6357V6.27246H39.7266V8.36328H41.8174V12.5449H43.9082V16.7266H45.999V29.2725H43.9082V33.4541H41.8174V37.6357H39.7266V39.7266H37.6357V41.8174H33.4541V43.9082H29.2725V45.999H16.7266V43.9082H12.5449V41.8174H8.36328V39.7266H6.27246V37.6357H4.18164V33.4541H2.09082V29.2725H0V16.7266H2.09082V12.5449H4.18164V8.36328H6.27246V6.27246H8.36328V4.18164H12.5449V2.09082H16.7266V0H29.2725Z" fill="white"/>
<g clip-path="url(#clip0_122_613)">
<path d="M17.032 25.8778L17.8525 28.4817C18.0369 29.0729 18.1138 29.4856 18.083 29.7209C18.5317 28.5454 18.8453 27.2643 19.0237 25.8778H20.0104C19.5861 28.1351 19.0266 29.7754 18.332 30.7987C17.7908 31.5872 17.198 31.9814 16.5524 31.9814C16.3803 31.9814 16.1681 31.9306 15.9163 31.8296V31.2855C16.0393 31.3031 16.1836 31.3126 16.3496 31.3126C16.6508 31.3125 16.8936 31.231 17.0782 31.068C17.2993 30.8695 17.41 30.6464 17.41 30.399C17.41 30.2302 17.3237 29.8836 17.1518 29.3594L16.0086 25.8778H17.032ZM10.752 24.2773L12.2549 28.7622H12.2642L13.7764 24.2773H15.0118C15.2824 26.5015 15.4421 28.5365 15.4912 30.3811H14.4496C14.4129 28.6569 14.3115 27.0353 14.1454 25.5165H14.1363L12.5502 30.3811H11.757L10.1804 25.5165H10.1711C10.0542 26.9751 9.98047 28.5967 9.94985 30.3811H9C9.06138 28.2108 9.215 26.1764 9.46085 24.2773H10.752Z" fill="#00758F"/>
<path d="M27.5886 24.1868C29.2053 24.1868 30.0137 25.197 30.0137 27.2163C30.0137 28.3137 29.7706 29.1425 29.2848 29.7025C29.1973 29.8048 29.1005 29.8932 28.9987 29.9751L30.1427 30.5284L30.1416 30.5283L29.7354 31.2144L28.2455 30.3642C27.9985 30.4357 27.7269 30.4714 27.4307 30.4714C26.6369 30.4714 26.0439 30.2452 25.6519 29.7932C25.2216 29.2932 25.0066 28.5061 25.0066 27.4333C25.0066 26.3421 25.2492 25.5164 25.7351 24.9557C26.1777 24.4428 26.7956 24.1868 27.5886 24.1868ZM22.6379 24.1956C23.2157 24.1956 23.7411 24.3469 24.2144 24.6482L23.974 25.1721C23.5691 25.0037 23.1698 24.9192 22.7761 24.9192C22.4566 24.9192 22.2105 24.9944 22.0389 25.1457C21.8663 25.2957 21.7596 25.4887 21.7596 25.724C21.7596 26.0855 22.0229 26.3991 22.5092 26.664C22.6685 26.7491 22.8273 26.8353 22.9855 26.9224L23.0217 26.9424L23.0399 26.9524L23.0763 26.9723L23.0944 26.9823L23.1307 27.0023C23.4988 27.2053 23.8451 27.399 23.8451 27.399C24.3313 27.7366 24.5737 28.0965 24.5737 28.6892C24.5737 29.2069 24.3798 29.6318 23.9931 29.9644C23.6062 30.2954 23.0864 30.4613 22.4354 30.4613C21.8266 30.4613 21.2366 30.2703 20.665 29.8914L20.9324 29.3671C21.4243 29.6082 21.8693 29.7287 22.269 29.7287C22.6438 29.7287 22.9373 29.6468 23.1495 29.4852C23.3613 29.3223 23.4883 29.0952 23.4883 28.8073C23.4883 28.4449 23.2305 28.1351 22.7576 27.8752C22.6096 27.7952 22.4621 27.7144 22.3149 27.6329L22.2787 27.6129C22.2122 27.5761 22.1451 27.5388 22.0795 27.5024L22.0439 27.4826C21.7246 27.3049 21.4485 27.1498 21.4485 27.1498C20.9758 26.8116 20.7388 26.4487 20.7388 25.8509C20.7388 25.3564 20.9155 24.9567 21.2685 24.6527C21.6224 24.348 22.0789 24.1956 22.6379 24.1956ZM31.9137 24.2773V29.6303H33.8774V30.3811H30.9177V24.2774L31.9137 24.2773ZM34.9686 29.6326V29.7595H34.7527V30.3805H34.5876V29.7595H34.3633V29.6326H34.9686ZM35.3672 29.6326L35.5745 30.1424L35.7649 29.6326H35.9989V30.3805H35.8434V29.8113L35.6266 30.3805H35.5145L35.2974 29.8113H35.289V30.3805H35.1418V29.6326H35.3672ZM27.487 24.9375C26.5343 24.9375 26.0577 25.7065 26.0577 27.2434C26.0577 28.1238 26.184 28.7622 26.4361 29.1601C26.6696 29.5284 27.0353 29.7121 27.5333 29.7121C28.486 29.7121 28.9625 28.9372 28.9625 27.3879C28.9625 26.5199 28.8362 25.8869 28.5844 25.4888C28.3507 25.1214 27.9851 24.9375 27.487 24.9375" fill="#F29111"/>
<path d="M24.9899 14.3782C25.3059 13.6187 26.4109 14.1939 26.8398 14.4592C26.9449 14.5256 27.0654 14.6658 27.1859 14.7176C27.3739 14.7249 27.5618 14.7392 27.7501 14.7469C28.1033 14.8281 28.4341 14.8944 28.7125 15.0495C30.0059 15.7945 30.848 16.5537 31.6229 17.8077C31.7885 18.0733 31.8712 18.3607 32.0065 18.6482C32.1942 19.0766 32.4051 19.5264 32.623 19.9315C32.7206 20.1236 32.7961 20.3371 32.9315 20.4993C32.9844 20.5735 33.1347 20.5954 33.2245 20.6397C33.4728 20.7654 33.7736 20.8608 34.0071 21.0083C34.4431 21.2742 34.8647 21.5911 35.248 21.9155C35.3909 22.0407 35.4882 22.218 35.6243 22.3505V22.4173C35.5035 22.4536 35.3831 22.4907 35.2626 22.5205C34.9994 22.5866 34.7663 22.5716 34.5109 22.6378C34.3532 22.6826 34.1572 22.7416 33.9918 22.7566L34.0071 22.7717C34.1044 23.0437 34.6311 23.265 34.872 23.4277C35.1646 23.6342 35.4357 23.8847 35.6539 24.1723C35.7293 24.2457 35.8046 24.3125 35.8796 24.3857C35.932 24.4599 35.9468 24.5558 35.9998 24.6219V24.6443C35.9411 24.624 35.8989 24.5853 35.8588 24.5449L35.8349 24.5205C35.8111 24.4963 35.787 24.4724 35.7595 24.4528C35.5935 24.3419 35.4286 24.2093 35.2626 24.1062C34.9772 23.929 34.6462 23.8262 34.3532 23.6485C34.1875 23.5453 34.0295 23.4277 33.8716 23.3096C33.7284 23.2061 33.5707 23.0073 33.4808 22.8598C33.4278 22.7783 33.4205 22.6826 33.36 22.6236C33.3708 22.5251 33.463 22.4959 33.5561 22.4719L33.5775 22.4663C33.6096 22.4582 33.641 22.45 33.6685 22.4393C34.0594 22.2769 34.5255 22.218 35.1275 22.2328C35.1048 22.0849 34.7287 21.9008 34.6086 21.8123C34.3676 21.6424 34.1124 21.4651 33.8568 21.3105C33.7213 21.2295 33.4878 21.1704 33.3378 21.1042C33.1347 21.023 32.6833 20.9419 32.5708 20.7873C32.3796 20.5435 32.2423 20.2528 32.109 19.9591L32.0727 19.879L32.0363 19.7989C31.8788 19.4452 31.683 19.0765 31.5251 18.7144C31.4425 18.5378 31.4046 18.3827 31.3141 18.2133C30.7653 17.1736 29.9531 16.3032 28.9682 15.691C28.6446 15.4918 28.2837 15.3075 27.8854 15.1822C27.6596 15.1155 27.3887 15.1524 27.1482 15.1013H26.9899C26.8548 15.064 26.742 14.9239 26.6365 14.8501C26.4037 14.6955 26.1705 14.5916 25.8921 14.4813C25.7945 14.4371 25.5159 14.334 25.4187 14.4151C25.3585 14.4299 25.3279 14.4522 25.3131 14.5113C25.2532 14.5995 25.3059 14.7323 25.3432 14.8137C25.4561 15.0494 25.6139 15.1894 25.7571 15.3886C25.8845 15.5653 26.0428 15.7645 26.1331 15.9565C26.328 16.3694 26.4188 16.8268 26.5994 17.2396C26.6664 17.3949 26.7723 17.5715 26.8698 17.7116C26.9525 17.8227 27.1027 17.9031 27.1482 18.0438C27.2388 18.1913 27.0125 18.678 26.9602 18.8326C26.7643 19.4374 26.8022 20.2781 27.0278 20.8024L27.0398 20.83L27.0519 20.8581C27.1342 21.0501 27.2224 21.2568 27.4414 21.3105C27.4565 21.2959 27.4414 21.3036 27.4713 21.2959C27.5243 20.8901 27.5392 20.4993 27.6823 20.1818C27.7649 19.9833 27.9299 19.8429 28.043 19.6809C28.1184 19.725 28.1184 19.8582 28.1634 19.9462C28.2612 20.1747 28.3663 20.4252 28.487 20.6544C28.7346 21.1263 29.0133 21.5838 29.329 21.9966C29.4347 22.1441 29.5848 22.3064 29.7201 22.4392C29.7803 22.4906 29.8478 22.5203 29.8931 22.5865H29.9079V22.6088C29.6823 22.5275 29.5393 22.2992 29.3594 22.1659C29.0206 21.9154 28.6149 21.5392 28.3814 21.1782C28.2837 20.971 28.1782 20.7724 28.0729 20.5662V20.5513C28.0279 20.6102 28.043 20.6687 28.0205 20.7578C27.9228 21.1263 27.998 21.5467 27.6596 21.6792C27.276 21.8345 26.9899 21.4287 26.8698 21.2444C26.4861 20.6324 26.381 19.5999 26.6516 18.7665C26.7117 18.582 26.7199 18.3607 26.8249 18.2134C26.8022 18.0803 26.6972 18.0439 26.6365 17.9623C26.5313 17.8228 26.4412 17.6603 26.3587 17.5055C26.2004 17.2029 26.0878 16.8414 25.9676 16.517C25.9148 16.3845 25.8996 16.2514 25.8469 16.126C25.7571 15.9346 25.5914 15.7425 25.4637 15.5731C25.2906 15.3297 24.7867 14.8579 24.9899 14.3782ZM27.4563 15.8231C27.4764 15.8428 27.5007 15.86 27.5258 15.877L27.5561 15.8973C27.5964 15.9247 27.6355 15.9534 27.6594 15.9926C27.6974 16.0445 27.7045 16.0957 27.7499 16.1477C27.7499 16.325 27.6974 16.4428 27.5913 16.5163C27.5913 16.5163 27.5841 16.524 27.5767 16.5312C27.5166 16.4131 27.4639 16.2955 27.4033 16.1775C27.3288 16.0744 27.2234 15.9927 27.1626 15.8749H27.148V15.8601C27.2388 15.8382 27.3288 15.8231 27.4563 15.8231Z" fill="#00758F"/>
</g>
<defs>
<clipPath id="clip0_122_613">
<rect width="27" height="18" fill="white" transform="translate(9 14)"/>
</clipPath>
</defs>
</svg>
