<svg width="46" height="46" viewBox="0 0 46 46" fill="none" xmlns="http://www.w3.org/2000/svg">
<path d="M29.2725 0V2.09082H33.4541V4.18164H37.6357V6.27246H39.7266V8.36328H41.8174V12.5449H43.9082V16.7266H45.999V29.2725H43.9082V33.4541H41.8174V37.6357H39.7266V39.7266H37.6357V41.8174H33.4541V43.9082H29.2725V45.999H16.7266V43.9082H12.5449V41.8174H8.36328V39.7266H6.27246V37.6357H4.18164V33.4541H2.09082V29.2725H0V16.7266H2.09082V12.5449H4.18164V8.36328H6.27246V6.27246H8.36328V4.18164H12.5449V2.09082H16.7266V0H29.2725Z" fill="white"/>
<path d="M23 25.3193C24.2944 25.3193 25.3438 24.27 25.3438 22.9756C25.3438 21.6812 24.2944 20.6318 23 20.6318C21.7056 20.6318 20.6562 21.6812 20.6562 22.9756C20.6562 24.27 21.7056 25.3193 23 25.3193Z" fill="#00D8FF"/>
<path d="M23 28.3493C20.183 28.4172 17.373 28.0375 14.675 27.2243C13.4287 26.8293 12.2663 26.2069 11.2466 25.3887C10.8573 25.1093 10.5331 24.749 10.2964 24.3324C10.0596 23.9159 9.91587 23.453 9.875 22.9756C9.875 21.4259 11.5775 19.9072 14.4294 18.9134C17.1996 18.0336 20.0937 17.6068 23 17.6497C25.8675 17.61 28.7229 18.0291 31.4581 18.8909C32.6582 19.274 33.7811 19.8662 34.775 20.6403C35.1571 20.9072 35.476 21.2546 35.7092 21.6581C35.9425 22.0616 36.0844 22.5113 36.125 22.9756C36.125 24.5862 34.2219 26.2184 31.1563 27.2328C28.5106 28.0197 25.7598 28.3963 23 28.3493ZM23 18.7709C20.2195 18.7346 17.451 19.1403 14.7978 19.9728C12.1728 20.8887 10.9963 22.1412 10.9963 22.9728C10.9963 23.8428 12.2609 25.2106 15.0378 26.1603C17.6188 26.9347 20.3062 27.2951 23 27.2281C25.6404 27.2753 28.2724 26.918 30.8047 26.1687C33.6875 25.2134 35 23.8437 35 22.9756C34.9525 22.6777 34.8439 22.3929 34.6809 22.1391C34.518 21.8853 34.3042 21.668 34.0531 21.5009C33.1641 20.814 32.1609 20.2891 31.0897 19.9503C28.473 19.1294 25.7421 18.7313 23 18.7709Z" fill="#00D8FF"/>
<path d="M17.6751 34.6653C17.2378 34.6753 16.8056 34.5692 16.4226 34.3578C15.0801 33.5834 14.6151 31.3503 15.1786 28.3831C15.8005 25.5437 16.8769 22.8234 18.3661 20.3272C19.7639 17.8234 21.5531 15.5592 23.6657 13.6203C24.5971 12.772 25.6712 12.095 26.8382 11.6206C27.2606 11.4233 27.7211 11.321 28.1873 11.321C28.6535 11.321 29.114 11.4233 29.5364 11.6206C30.9323 12.425 31.3945 14.8887 30.7429 18.0509C30.1026 20.7365 29.0542 23.3079 27.6342 25.6756C26.2856 28.1499 24.5528 30.3944 22.5004 32.3253C21.5355 33.2073 20.4157 33.9031 19.1976 34.3775C18.7101 34.5589 18.1953 34.6563 17.6751 34.6653ZM19.3373 20.884C17.9169 23.2744 16.8853 25.8753 16.2811 28.5894C15.7626 31.3222 16.2604 32.9656 16.9842 33.3837C17.7342 33.8178 19.5548 33.4062 21.7654 31.475C23.7249 29.6253 25.3789 27.4768 26.6657 25.1094C28.026 22.8458 29.0317 20.3873 29.6479 17.8194C30.2611 14.8428 29.7314 13.0203 28.9795 12.5872C28.6977 12.4794 28.3965 12.4311 28.0951 12.4455C27.7937 12.4598 27.4986 12.5365 27.2282 12.6706C26.1893 13.0995 25.234 13.7082 24.4064 14.4687C22.3881 16.3261 20.6791 18.4937 19.3439 20.8897L19.3373 20.884Z" fill="#00D8FF"/>
<path d="M28.322 34.6776C27.0516 34.6776 25.4382 33.9089 23.7582 32.4642C21.6088 30.5074 19.7894 28.2163 18.3704 25.6795C16.8995 23.2178 15.8317 20.5367 15.2073 17.7379C14.9371 16.5064 14.8869 15.2369 15.0591 13.9879C15.0996 13.5248 15.2409 13.0761 15.4732 12.6733C15.7054 12.2705 16.0229 11.9234 16.4035 11.6564C17.7976 10.8492 20.1629 11.6789 22.577 13.822C24.5838 15.7178 26.2879 17.9101 27.6301 20.3226C29.1001 22.7268 30.1792 25.3491 30.827 28.0917C31.1092 29.3683 31.1528 30.6861 30.9554 31.9785C30.9086 32.4552 30.7592 32.9161 30.5174 33.3296C30.2757 33.7431 29.9472 34.0993 29.5548 34.3739C29.1779 34.5822 28.7525 34.687 28.322 34.6776ZM19.3407 25.1151C20.7021 27.5394 22.44 29.7321 24.4895 31.611C26.5979 33.4251 28.2704 33.8151 28.9895 33.3923C29.7395 32.9564 30.2926 31.177 29.7226 28.2979C29.0983 25.6794 28.0633 23.1762 26.656 20.8814C25.3752 18.5724 23.7486 16.4731 21.8326 14.6564C19.5601 12.6389 17.717 12.1879 16.966 12.6229C16.7321 12.8132 16.5401 13.0499 16.4022 13.3181C16.2642 13.5862 16.1833 13.8801 16.1645 14.181C16.0155 15.2949 16.0641 16.4262 16.3079 17.5232C16.9087 20.1998 17.9328 22.7632 19.3416 25.117L19.3407 25.1151Z" fill="#00D8FF"/>
</svg>
