<svg width="46" height="46" viewBox="0 0 46 46" fill="none" xmlns="http://www.w3.org/2000/svg">
<path d="M29.2725 0V2.09082H33.4541V4.18164H37.6357V6.27246H39.7266V8.36328H41.8174V12.5449H43.9082V16.7266H45.999V29.2725H43.9082V33.4541H41.8174V37.6357H39.7266V39.7266H37.6357V41.8174H33.4541V43.9082H29.2725V45.999H16.7266V43.9082H12.5449V41.8174H8.36328V39.7266H6.27246V37.6357H4.18164V33.4541H2.09082V29.2725H0V16.7266H2.09082V12.5449H4.18164V8.36328H6.27246V6.27246H8.36328V4.18164H12.5449V2.09082H16.7266V0H29.2725Z" fill="white"/>
<g clip-path="url(#clip0_122_596)">
<path d="M14.651 14.3637C19.3929 9.77001 26.9748 9.89348 31.5685 14.66C32.0871 13.9685 32.5317 13.2029 32.8528 12.4126C34.3593 17.0063 35.2731 20.859 34.9273 23.8473C34.7544 26.3664 33.7666 28.7867 32.1365 30.7131C27.8887 35.7513 20.3313 36.3934 15.2931 32.1456L15.1967 32.0598L15.1916 32.0564C15.1758 32.0454 15.1603 32.034 15.1449 32.022C15.099 31.9862 15.0572 31.9475 15.0197 31.9058L15.0062 31.8904L14.8487 31.7504C14.6949 31.6187 14.5412 31.487 14.4049 31.3379L14.3547 31.2811C9.76093 26.5393 9.90925 18.9573 14.651 14.3637ZM16.4291 30.4415C15.9845 30.0958 15.3424 30.1451 14.9966 30.5896C14.6927 30.9806 14.6942 31.5242 15.0012 31.8848L15.0062 31.8904L15.1967 32.0598L15.2154 32.0726C15.647 32.3564 16.2279 32.2978 16.5591 31.8965L16.5773 31.8739C16.9231 31.4294 16.849 30.7873 16.4292 30.4414M32.7294 13.6474C31.4944 16.2406 28.4319 18.2164 25.7894 18.8339C23.295 19.4265 21.1216 18.9327 18.8248 19.8217C13.589 21.8222 13.6878 28.0458 16.5527 29.4536L16.7255 29.5524C16.7255 29.5524 18.795 29.1409 20.8413 28.5975L21.0167 28.5507C21.834 28.3304 22.6381 28.0904 23.295 27.8483C26.7032 26.5888 30.4572 23.4769 31.692 19.8711C31.0499 23.625 27.8146 27.2555 24.5792 28.9103C22.8504 29.7993 21.5168 29.9969 18.6767 30.9848C18.3309 31.1083 18.0592 31.2318 18.0592 31.2318L18.1631 31.2178L18.2321 31.2089L18.3008 31.2002C18.928 31.1224 19.4916 31.0836 19.4916 31.0836C23.5172 30.886 29.8397 32.2197 32.7787 28.2929C35.7917 24.2919 34.1124 17.8213 32.7294 13.6474Z" fill="#6DB33F"/>
<path d="M16.4293 30.4416C16.8492 30.7873 16.9232 31.4294 16.5774 31.874C16.2317 32.3185 15.5895 32.3679 15.145 32.0221C14.7004 31.6762 14.6511 31.0342 14.9968 30.5897C15.3426 30.1451 15.9846 30.0958 16.4293 30.4416ZM32.7295 13.6475C34.1125 17.8213 35.7919 24.2919 32.7789 28.2929C29.8398 32.2197 23.5174 30.886 19.4918 31.0836C19.4918 31.0836 18.9282 31.1226 18.301 31.2003L18.2323 31.2089C18.1748 31.2162 18.1172 31.2239 18.0594 31.2319C18.0594 31.2319 18.3311 31.1083 18.6768 30.9848C21.517 29.997 22.8506 29.7994 24.5793 28.9103C27.8147 27.2556 31.05 23.6251 31.6921 19.8711C30.4573 23.477 26.7033 26.5888 23.2951 27.8483C20.9489 28.7127 16.7257 29.5524 16.7257 29.5524L16.5528 29.4536C13.688 28.0459 13.5892 21.8223 18.8249 19.8217C21.1218 18.9327 23.2951 19.4266 25.7896 18.8339C28.4322 18.2165 31.4946 16.2408 32.7295 13.6475Z" fill="white"/>
</g>
<defs>
<clipPath id="clip0_122_596">
<rect width="24" height="24" fill="white" transform="translate(11 11)"/>
</clipPath>
</defs>
</svg>
