<svg width="46" height="46" viewBox="0 0 46 46" fill="none" xmlns="http://www.w3.org/2000/svg">
<path d="M29.2725 0V2.09082H33.4541V4.18164H37.6357V6.27246H39.7266V8.36328H41.8174V12.5449H43.9082V16.7266H45.999V29.2725H43.9082V33.4541H41.8174V37.6357H39.7266V39.7266H37.6357V41.8174H33.4541V43.9082H29.2725V45.999H16.7266V43.9082H12.5449V41.8174H8.36328V39.7266H6.27246V37.6357H4.18164V33.4541H2.09082V29.2725H0V16.7266H2.09082V12.5449H4.18164V8.36328H6.27246V6.27246H8.36328V4.18164H12.5449V2.09082H16.7266V0H29.2725Z" fill="white"/>
<g clip-path="url(#clip0_122_597)">
<path d="M12.727 11H33.2731C33.4974 10.9995 33.7195 11.0434 33.9269 11.129C34.1342 11.2146 34.3225 11.3403 34.4811 11.4989C34.6397 11.6575 34.7654 11.8459 34.851 12.0532C34.9366 12.2605 34.9804 12.4827 34.9799 12.707V33.293C34.9804 33.5173 34.9366 33.7395 34.851 33.9468C34.7654 34.1541 34.6397 34.3425 34.4811 34.5011C34.3225 34.6597 34.1342 34.7854 33.9269 34.871C33.7195 34.9566 33.4974 35.0005 33.2731 35H12.7268C12.5025 35.0005 12.2804 34.9566 12.0731 34.871C11.8658 34.7854 11.6774 34.6597 11.5188 34.5011C11.3602 34.3425 11.2345 34.1541 11.1489 33.9468C11.0633 33.7395 11.0195 33.5173 11.02 33.293V12.707C11.0195 12.4827 11.0633 12.2605 11.1489 12.0532C11.2345 11.8459 11.3602 11.6575 11.5188 11.4989C11.6774 11.3403 11.8658 11.2146 12.0731 11.129C12.2804 11.0434 12.5025 10.9995 12.7268 11H12.727Z" fill="#005F0F"/>
<path d="M31.4405 14.2724C28.4898 17.8882 24.886 20.9167 21.043 23.5418C19.7937 24.4362 18.4146 25.2322 17.4541 26.4567C17.0871 27.1012 16.9986 28.0088 17.6258 28.5318C18.6704 29.5162 20.2973 29.7303 21.6059 29.1792C23.4378 28.4815 24.7032 26.893 25.7667 25.3186C28.1401 21.8993 29.5795 17.9667 31.4405 14.2724Z" fill="white"/>
<path d="M29.7483 15.5227C26.0744 18.4336 23.1359 20.0068 19.3786 21.3601C18.2446 21.8454 17.0292 22.4611 16.5026 23.6518C15.9603 24.7781 16.1381 26.349 16.7602 27.392C16.7137 26.9529 16.9482 26.2436 17.2972 25.9106C18.4552 24.621 19.9634 23.7761 21.2902 22.7968L21.2934 22.7941L21.2966 22.7919C24.3669 20.6833 27.2457 18.2737 29.7483 15.5227Z" fill="#AEA99F"/>
</g>
<defs>
<clipPath id="clip0_122_597">
<rect width="24" height="24" fill="white" transform="translate(11 11)"/>
</clipPath>
</defs>
</svg>
