<svg width="46" height="46" viewBox="0 0 46 46" fill="none" xmlns="http://www.w3.org/2000/svg">
<path d="M29.2725 0V2.09082H33.4541V4.18164H37.6357V6.27246H39.7266V8.36328H41.8174V12.5449H43.9082V16.7266H45.999V29.2725H43.9082V33.4541H41.8174V37.6357H39.7266V39.7266H37.6357V41.8174H33.4541V43.9082H29.2725V45.999H16.7266V43.9082H12.5449V41.8174H8.36328V39.7266H6.27246V37.6357H4.18164V33.4541H2.09082V29.2725H0V16.7266H2.09082V12.5449H4.18164V8.36328H6.27246V6.27246H8.36328V4.18164H12.5449V2.09082H16.7266V0H29.2725Z" fill="white"/>
<g clip-path="url(#clip0_122_601)">
<path d="M29.375 11H16.625C13.5184 11 11 13.5184 11 16.625V29.375C11 32.4816 13.5184 35 16.625 35H29.375C32.4816 35 35 32.4816 35 29.375V16.625C35 13.5184 32.4816 11 29.375 11Z" fill="#007ACC"/>
<path d="M16.3074 23.0796L16.2998 24.0625H19.4236V32.9386H21.6331V24.0625H24.7569V23.0987C24.7569 22.5653 24.7456 22.1196 24.7303 22.1082C24.7188 22.093 22.8179 22.0853 20.5131 22.0892L16.3188 22.1006L16.3074 23.0796ZM30.3658 22.0727C30.9752 22.2251 31.4401 22.4956 31.8667 22.9374C32.0877 23.1737 32.4152 23.6042 32.442 23.707C32.4496 23.7375 31.4057 24.4384 30.7734 24.8308C30.7505 24.8461 30.659 24.747 30.5562 24.5946C30.2476 24.1451 29.9238 23.9507 29.4286 23.9165C28.701 23.8669 28.2324 24.2479 28.2362 24.8841C28.2362 25.0708 28.2629 25.1812 28.3391 25.3336C28.499 25.6651 28.7962 25.8632 29.7296 26.2669C31.4476 27.0061 32.1828 27.4936 32.6401 28.1869C33.1505 28.9603 33.2648 30.1946 32.9181 31.1127C32.5372 32.1107 31.5924 32.7888 30.2628 33.0136C29.8515 33.086 28.8762 33.0746 28.4343 32.9946C27.4705 32.8231 26.5562 32.347 25.9924 31.7222C25.7715 31.4784 25.341 30.8422 25.3677 30.7965C25.379 30.7813 25.4781 30.7203 25.5886 30.6556C25.6952 30.5946 26.0991 30.3622 26.48 30.1412L27.1696 29.7412L27.3143 29.9546C27.5162 30.2631 27.9581 30.686 28.2248 30.8269C28.9905 31.2308 30.042 31.1736 30.56 30.7089C30.781 30.507 30.8724 30.2974 30.8724 29.9889C30.8724 29.7107 30.8381 29.5889 30.6933 29.3793C30.5067 29.1127 30.1258 28.8879 29.0438 28.4193C27.8057 27.886 27.2724 27.5546 26.7848 27.0288C26.5029 26.7241 26.2362 26.2365 26.1257 25.8288C26.0343 25.4898 26.0115 24.6403 26.0838 24.2974C26.339 23.1013 27.2419 22.267 28.5448 22.0193C28.9677 21.9393 29.9505 21.9698 30.3658 22.0727Z" fill="white"/>
</g>
<defs>
<clipPath id="clip0_122_601">
<rect width="24" height="24" fill="white" transform="translate(11 11)"/>
</clipPath>
</defs>
</svg>
