<svg width="24" height="24" viewBox="0 0 24 24" fill="none" xmlns="http://www.w3.org/2000/svg">
<path d="M24 8.72727V15.2727H22.9091V17.4545H21.8182V19.6364H20.7273V20.7273H19.6364V21.8182H18.5455V22.9091H16.3636V24H15.2727V18.5455H14.1818V17.4545H15.2727V16.3636H17.4545V15.2727H18.5455V14.1818H19.6364V8.72727H18.5455V5.45455H16.3636V6.54545H15.2727V7.63636H14.1818V6.54545H9.81818V7.63636H8.72727V6.54545H7.63636V5.45455H5.45455V8.72727H4.36364V14.1818H5.45455V15.2727H6.54545V16.3636H8.72727V18.5455H6.54545V17.4545H5.45455V16.3636H3.27273V17.4545H4.36364V19.6364H5.45455V20.7273H8.72727V24H7.63636V22.9091H5.45455V21.8182H4.36364V20.7273H3.27273V19.6364H2.18182V17.4545H1.09091V15.2727H0V8.72727H1.09091V6.54545H2.18182V4.36364H3.27273V3.27273H4.36364V2.18182H6.54545V1.09091H8.72727V0H15.2727V1.09091H17.4545V2.18182H19.6364V3.27273H20.7273V4.36364H21.8182V6.54545H22.9091V8.72727H24Z" fill="black"/>
</svg>
